<svg width="1000" height="200" viewBox="0 0 1000 200" fill="none" xmlns="http://www.w3.org/2000/svg">
<rect width="1000" height="200" fill="#6D28D9"/>
<path d="M250.381 62.0836C249.644 62.4616 239.894 67.624 228.724 73.5595C212.482 82.2112 208.382 84.4414 208.184 84.8374C207.806 85.5565 207.806 126.496 208.184 127.215C208.544 127.916 251.047 150.527 252 150.527C252.953 150.527 295.457 127.917 295.817 127.215C296.195 126.496 296.195 85.5565 295.817 84.8374C295.619 84.4414 291.32 82.1032 274.142 72.9655C262.361 66.706 252.504 61.5436 252.216 61.4896C251.856 61.4185 251.352 61.5796 250.381 62.0836ZM271.265 75.7537C281.84 81.3841 290.42 86.0245 290.349 86.0785C290.169 86.2585 279.664 91.816 279.521 91.816C279.449 91.816 256.947 79.765 244.032 72.8035L241.172 71.2744L246.551 68.4142C249.501 66.8491 251.947 65.554 251.983 65.554C252.019 65.554 260.706 70.1422 271.265 75.7537ZM257.45 84.3514L277.542 95.1442V101.476V107.825L274.125 109.534L270.725 111.243L270.671 105.236C270.617 99.5335 270.599 99.1924 270.257 98.7424C270.005 98.4004 263.764 95.0191 249.968 87.7705C236.532 80.7019 230.11 77.2297 230.272 77.1397C231.171 76.5457 237.018 73.4884 237.18 73.5244C237.287 73.5415 246.406 78.4159 257.45 84.3514ZM245.237 89.5858C255.885 95.1982 264.573 99.8026 264.555 99.8206C264.519 99.8386 261.731 101.332 258.332 103.148C254.86 104.983 252.018 106.386 251.856 106.35C251.532 106.26 213.867 86.2945 213.651 86.0965C213.561 86.0065 225.541 79.459 225.846 79.405C225.865 79.405 234.589 83.9923 245.237 89.5858ZM230.703 99.5146C240.992 104.965 249.554 109.551 249.716 109.677C250.004 109.875 250.022 111.152 249.986 127.665L249.932 145.418L230.865 135.291L211.799 125.165L211.745 107.303C211.727 97.4824 211.781 89.4778 211.853 89.5138C211.943 89.5318 220.415 94.0471 230.703 99.5146ZM292.255 107.321L292.201 125.165L273.135 135.291L254.068 145.418L254.014 127.665C253.996 117.898 254.05 109.839 254.122 109.767C254.212 109.677 257.072 108.13 260.472 106.314L266.659 103.041L266.749 108.976C266.821 113.348 266.893 115.038 267.073 115.326C267.343 115.811 268.188 116.279 268.764 116.261C268.998 116.261 271.805 114.948 275.024 113.347C280.366 110.684 280.905 110.378 281.175 109.803C281.463 109.227 281.499 108.472 281.499 102.159V95.1442L286.77 92.338C289.648 90.7729 292.076 89.5138 292.166 89.4958C292.237 89.4778 292.273 97.5004 292.255 107.321Z" fill="white"/>
<path d="M350.68 122.315C348.58 122.315 346.69 121.955 345.01 121.235C343.33 120.485 342.01 119.435 341.05 118.085C340.09 116.735 339.61 115.16 339.61 113.36H345.1C345.22 114.71 345.745 115.82 346.675 116.69C347.635 117.56 348.97 117.995 350.68 117.995C352.45 117.995 353.83 117.575 354.82 116.735C355.81 115.865 356.305 114.755 356.305 113.405C356.305 112.355 355.99 111.5 355.36 110.84C354.76 110.18 353.995 109.67 353.065 109.31C352.165 108.95 350.905 108.56 349.285 108.14C347.245 107.6 345.58 107.06 344.29 106.52C343.03 105.95 341.95 105.08 341.05 103.91C340.15 102.74 339.7 101.18 339.7 99.23C339.7 97.43 340.15 95.855 341.05 94.505C341.95 93.155 343.21 92.12 344.83 91.4C346.45 90.68 348.325 90.32 350.455 90.32C353.485 90.32 355.96 91.085 357.88 92.615C359.83 94.115 360.91 96.185 361.12 98.825H355.45C355.36 97.685 354.82 96.71 353.83 95.9C352.84 95.09 351.535 94.685 349.915 94.685C348.445 94.685 347.245 95.06 346.315 95.81C345.385 96.56 344.92 97.64 344.92 99.05C344.92 100.01 345.205 100.805 345.775 101.435C346.375 102.035 347.125 102.515 348.025 102.875C348.925 103.235 350.155 103.625 351.715 104.045C353.785 104.615 355.465 105.185 356.755 105.755C358.075 106.325 359.185 107.21 360.085 108.41C361.015 109.58 361.48 111.155 361.48 113.135C361.48 114.725 361.045 116.225 360.175 117.635C359.335 119.045 358.09 120.185 356.44 121.055C354.82 121.895 352.9 122.315 350.68 122.315ZM397.548 96.8C399.498 96.8 401.238 97.205 402.768 98.015C404.328 98.825 405.543 100.025 406.413 101.615C407.313 103.205 407.763 105.125 407.763 107.375V122H402.678V108.14C402.678 105.92 402.123 104.225 401.013 103.055C399.903 101.855 398.388 101.255 396.468 101.255C394.548 101.255 393.018 101.855 391.878 103.055C390.768 104.225 390.213 105.92 390.213 108.14V122H385.128V108.14C385.128 105.92 384.573 104.225 383.463 103.055C382.353 101.855 380.838 101.255 378.918 101.255C376.998 101.255 375.468 101.855 374.328 103.055C373.218 104.225 372.663 105.92 372.663 108.14V122H367.533V97.205H372.663V100.04C373.503 99.02 374.568 98.225 375.858 97.655C377.148 97.085 378.528 96.8 379.998 96.8C381.978 96.8 383.748 97.22 385.308 98.06C386.868 98.9 388.068 100.115 388.908 101.705C389.658 100.205 390.828 99.02 392.418 98.15C394.008 97.25 395.718 96.8 397.548 96.8ZM412.581 109.49C412.581 107 413.091 104.795 414.111 102.875C415.161 100.955 416.571 99.47 418.341 98.42C420.141 97.34 422.121 96.8 424.281 96.8C426.231 96.8 427.926 97.19 429.366 97.97C430.836 98.72 432.006 99.665 432.876 100.805V97.205H438.051V122H432.876V118.31C432.006 119.48 430.821 120.455 429.321 121.235C427.821 122.015 426.111 122.405 424.191 122.405C422.061 122.405 420.111 121.865 418.341 120.785C416.571 119.675 415.161 118.145 414.111 116.195C413.091 114.215 412.581 111.98 412.581 109.49ZM432.876 109.58C432.876 107.87 432.516 106.385 431.796 105.125C431.106 103.865 430.191 102.905 429.051 102.245C427.911 101.585 426.681 101.255 425.361 101.255C424.041 101.255 422.811 101.585 421.671 102.245C420.531 102.875 419.601 103.82 418.881 105.08C418.191 106.31 417.846 107.78 417.846 109.49C417.846 111.2 418.191 112.7 418.881 113.99C419.601 115.28 420.531 116.27 421.671 116.96C422.841 117.62 424.071 117.95 425.361 117.95C426.681 117.95 427.911 117.62 429.051 116.96C430.191 116.3 431.106 115.34 431.796 114.08C432.516 112.79 432.876 111.29 432.876 109.58ZM449.919 100.805C450.669 99.545 451.659 98.57 452.889 97.88C454.149 97.16 455.634 96.8 457.344 96.8V102.11H456.039C454.029 102.11 452.499 102.62 451.449 103.64C450.429 104.66 449.919 106.43 449.919 108.95V122H444.789V97.205H449.919V100.805ZM468.045 101.39V115.115C468.045 116.045 468.255 116.72 468.675 117.14C469.125 117.53 469.875 117.725 470.925 117.725H474.075V122H470.025C467.715 122 465.945 121.46 464.715 120.38C463.485 119.3 462.87 117.545 462.87 115.115V101.39H459.945V97.205H462.87V91.04H468.045V97.205H474.075V101.39H468.045ZM523.432 90.725V122H518.302V100.58L508.762 122H505.207L495.622 100.58V122H490.492V90.725H496.027L507.007 115.25L517.942 90.725H523.432ZM528.465 109.49C528.465 107 528.975 104.795 529.995 102.875C531.045 100.955 532.455 99.47 534.225 98.42C536.025 97.34 538.005 96.8 540.165 96.8C542.115 96.8 543.81 97.19 545.25 97.97C546.72 98.72 547.89 99.665 548.76 100.805V97.205H553.935V122H548.76V118.31C547.89 119.48 546.705 120.455 545.205 121.235C543.705 122.015 541.995 122.405 540.075 122.405C537.945 122.405 535.995 121.865 534.225 120.785C532.455 119.675 531.045 118.145 529.995 116.195C528.975 114.215 528.465 111.98 528.465 109.49ZM548.76 109.58C548.76 107.87 548.4 106.385 547.68 105.125C546.99 103.865 546.075 102.905 544.935 102.245C543.795 101.585 542.565 101.255 541.245 101.255C539.925 101.255 538.695 101.585 537.555 102.245C536.415 102.875 535.485 103.82 534.765 105.08C534.075 106.31 533.73 107.78 533.73 109.49C533.73 111.2 534.075 112.7 534.765 113.99C535.485 115.28 536.415 116.27 537.555 116.96C538.725 117.62 539.955 117.95 541.245 117.95C542.565 117.95 543.795 117.62 544.935 116.96C546.075 116.3 546.99 115.34 547.68 114.08C548.4 112.79 548.76 111.29 548.76 109.58ZM563.283 93.92C562.353 93.92 561.573 93.605 560.943 92.975C560.313 92.345 559.998 91.565 559.998 90.635C559.998 89.705 560.313 88.925 560.943 88.295C561.573 87.665 562.353 87.35 563.283 87.35C564.183 87.35 564.948 87.665 565.578 88.295C566.208 88.925 566.523 89.705 566.523 90.635C566.523 91.565 566.208 92.345 565.578 92.975C564.948 93.605 564.183 93.92 563.283 93.92ZM565.803 97.205V122H560.673V97.205H565.803ZM577.668 88.7V122H572.538V88.7H577.668ZM589.533 100.895C590.403 99.695 591.588 98.72 593.088 97.97C594.618 97.19 596.313 96.8 598.173 96.8C600.363 96.8 602.343 97.325 604.113 98.375C605.883 99.425 607.278 100.925 608.298 102.875C609.318 104.795 609.828 107 609.828 109.49C609.828 111.98 609.318 114.215 608.298 116.195C607.278 118.145 605.868 119.675 604.068 120.785C602.298 121.865 600.333 122.405 598.173 122.405C596.253 122.405 594.543 122.03 593.043 121.28C591.573 120.53 590.403 119.57 589.533 118.4V122H584.403V88.7H589.533V100.895ZM604.608 109.49C604.608 107.78 604.248 106.31 603.528 105.08C602.838 103.82 601.908 102.875 600.738 102.245C599.598 101.585 598.368 101.255 597.048 101.255C595.758 101.255 594.528 101.585 593.358 102.245C592.218 102.905 591.288 103.865 590.568 105.125C589.878 106.385 589.533 107.87 589.533 109.58C589.533 111.29 589.878 112.79 590.568 114.08C591.288 115.34 592.218 116.3 593.358 116.96C594.528 117.62 595.758 117.95 597.048 117.95C598.368 117.95 599.598 117.62 600.738 116.96C601.908 116.27 602.838 115.28 603.528 113.99C604.248 112.7 604.608 111.2 604.608 109.49ZM625.656 122.405C623.316 122.405 621.201 121.88 619.311 120.83C617.421 119.75 615.936 118.25 614.856 116.33C613.776 114.38 613.236 112.13 613.236 109.58C613.236 107.06 613.791 104.825 614.901 102.875C616.011 100.925 617.526 99.425 619.446 98.375C621.366 97.325 623.511 96.8 625.881 96.8C628.251 96.8 630.396 97.325 632.316 98.375C634.236 99.425 635.751 100.925 636.861 102.875C637.971 104.825 638.526 107.06 638.526 109.58C638.526 112.1 637.956 114.335 636.816 116.285C635.676 118.235 634.116 119.75 632.136 120.83C630.186 121.88 628.026 122.405 625.656 122.405ZM625.656 117.95C626.976 117.95 628.206 117.635 629.346 117.005C630.516 116.375 631.461 115.43 632.181 114.17C632.901 112.91 633.261 111.38 633.261 109.58C633.261 107.78 632.916 106.265 632.226 105.035C631.536 103.775 630.621 102.83 629.481 102.2C628.341 101.57 627.111 101.255 625.791 101.255C624.471 101.255 623.241 101.57 622.101 102.2C620.991 102.83 620.106 103.775 619.446 105.035C618.786 106.265 618.456 107.78 618.456 109.58C618.456 112.25 619.131 114.32 620.481 115.79C621.861 117.23 623.586 117.95 625.656 117.95ZM654.218 109.445L662.228 122H656.423L651.068 113.585L646.028 122H640.673L648.683 109.805L640.673 97.205H646.478L651.833 105.62L656.873 97.205H662.228L654.218 109.445Z" fill="white"/>
</svg>
